<mxfile host="app.diagrams.net" modified="2021-04-10T09:04:03.050Z" agent="5.0 (X11)" etag="wVFVML-1rMgvOop_tC6A" version="14.5.8" type="github">
  <diagram id="hoot__3CSZ-m4Yv-MgML" name="Page-1">
    <mxGraphModel dx="1369" dy="776" grid="0" gridSize="10" guides="1" tooltips="1" connect="1" arrows="1" fold="1" page="1" pageScale="1" pageWidth="1100" pageHeight="1700" background="#ffffff" math="0" shadow="0">
      <root>
        <mxCell id="0" />
        <mxCell id="1" parent="0" />
        <mxCell id="pvwdePWFHWHqx1OLr2bi-17" value="HỌC SINH" style="swimlane;fontStyle=0;childLayout=stackLayout;horizontal=1;startSize=26;horizontalStack=0;resizeParent=1;resizeParentMax=0;resizeLast=0;collapsible=1;marginBottom=0;align=center;fontSize=14;" parent="1" vertex="1">
          <mxGeometry x="131" y="393" width="160" height="236" as="geometry" />
        </mxCell>
        <mxCell id="pvwdePWFHWHqx1OLr2bi-19" value="Tên học sinh" style="text;strokeColor=none;fillColor=none;spacingLeft=4;spacingRight=4;overflow=hidden;rotatable=0;points=[[0,0.5],[1,0.5]];portConstraint=eastwest;fontSize=12;" parent="pvwdePWFHWHqx1OLr2bi-17" vertex="1">
          <mxGeometry y="26" width="160" height="30" as="geometry" />
        </mxCell>
        <mxCell id="pvwdePWFHWHqx1OLr2bi-24" value="Ngày sinh" style="text;strokeColor=none;fillColor=none;spacingLeft=4;spacingRight=4;overflow=hidden;rotatable=0;points=[[0,0.5],[1,0.5]];portConstraint=eastwest;fontSize=12;" parent="pvwdePWFHWHqx1OLr2bi-17" vertex="1">
          <mxGeometry y="56" width="160" height="30" as="geometry" />
        </mxCell>
        <mxCell id="pvwdePWFHWHqx1OLr2bi-25" value="Giới tính" style="text;strokeColor=none;fillColor=none;spacingLeft=4;spacingRight=4;overflow=hidden;rotatable=0;points=[[0,0.5],[1,0.5]];portConstraint=eastwest;fontSize=12;" parent="pvwdePWFHWHqx1OLr2bi-17" vertex="1">
          <mxGeometry y="86" width="160" height="30" as="geometry" />
        </mxCell>
        <mxCell id="pvwdePWFHWHqx1OLr2bi-26" value="Khuyết tật" style="text;strokeColor=none;fillColor=none;spacingLeft=4;spacingRight=4;overflow=hidden;rotatable=0;points=[[0,0.5],[1,0.5]];portConstraint=eastwest;fontSize=12;" parent="pvwdePWFHWHqx1OLr2bi-17" vertex="1">
          <mxGeometry y="116" width="160" height="30" as="geometry" />
        </mxCell>
        <mxCell id="pvwdePWFHWHqx1OLr2bi-27" value="Lớp" style="text;strokeColor=none;fillColor=none;spacingLeft=4;spacingRight=4;overflow=hidden;rotatable=0;points=[[0,0.5],[1,0.5]];portConstraint=eastwest;fontSize=12;" parent="pvwdePWFHWHqx1OLr2bi-17" vertex="1">
          <mxGeometry y="146" width="160" height="30" as="geometry" />
        </mxCell>
        <mxCell id="pvwdePWFHWHqx1OLr2bi-28" value="Thành phần gia đình" style="text;strokeColor=none;fillColor=none;spacingLeft=4;spacingRight=4;overflow=hidden;rotatable=0;points=[[0,0.5],[1,0.5]];portConstraint=eastwest;fontSize=12;" parent="pvwdePWFHWHqx1OLr2bi-17" vertex="1">
          <mxGeometry y="176" width="160" height="30" as="geometry" />
        </mxCell>
        <mxCell id="pvwdePWFHWHqx1OLr2bi-29" value="Dân tộc" style="text;strokeColor=none;fillColor=none;spacingLeft=4;spacingRight=4;overflow=hidden;rotatable=0;points=[[0,0.5],[1,0.5]];portConstraint=eastwest;fontSize=12;" parent="pvwdePWFHWHqx1OLr2bi-17" vertex="1">
          <mxGeometry y="206" width="160" height="30" as="geometry" />
        </mxCell>
        <mxCell id="pvwdePWFHWHqx1OLr2bi-33" value="GIÁO VIÊN" style="swimlane;fontStyle=0;childLayout=stackLayout;horizontal=1;startSize=26;horizontalStack=0;resizeParent=1;resizeParentMax=0;resizeLast=0;collapsible=1;marginBottom=0;align=center;fontSize=14;" parent="1" vertex="1">
          <mxGeometry x="834" y="390" width="160" height="266" as="geometry" />
        </mxCell>
        <mxCell id="pvwdePWFHWHqx1OLr2bi-35" value="Tên giáo viên" style="text;strokeColor=none;fillColor=none;spacingLeft=4;spacingRight=4;overflow=hidden;rotatable=0;points=[[0,0.5],[1,0.5]];portConstraint=eastwest;fontSize=12;" parent="pvwdePWFHWHqx1OLr2bi-33" vertex="1">
          <mxGeometry y="26" width="160" height="30" as="geometry" />
        </mxCell>
        <mxCell id="pvwdePWFHWHqx1OLr2bi-36" value="Ngày sinh" style="text;strokeColor=none;fillColor=none;spacingLeft=4;spacingRight=4;overflow=hidden;rotatable=0;points=[[0,0.5],[1,0.5]];portConstraint=eastwest;fontSize=12;" parent="pvwdePWFHWHqx1OLr2bi-33" vertex="1">
          <mxGeometry y="56" width="160" height="30" as="geometry" />
        </mxCell>
        <mxCell id="pvwdePWFHWHqx1OLr2bi-37" value="Giới tính" style="text;strokeColor=none;fillColor=none;spacingLeft=4;spacingRight=4;overflow=hidden;rotatable=0;points=[[0,0.5],[1,0.5]];portConstraint=eastwest;fontSize=12;" parent="pvwdePWFHWHqx1OLr2bi-33" vertex="1">
          <mxGeometry y="86" width="160" height="30" as="geometry" />
        </mxCell>
        <mxCell id="pvwdePWFHWHqx1OLr2bi-38" value="Đia chỉ" style="text;strokeColor=none;fillColor=none;spacingLeft=4;spacingRight=4;overflow=hidden;rotatable=0;points=[[0,0.5],[1,0.5]];portConstraint=eastwest;fontSize=12;" parent="pvwdePWFHWHqx1OLr2bi-33" vertex="1">
          <mxGeometry y="116" width="160" height="30" as="geometry" />
        </mxCell>
        <mxCell id="pvwdePWFHWHqx1OLr2bi-39" value="Điện thoại" style="text;strokeColor=none;fillColor=none;spacingLeft=4;spacingRight=4;overflow=hidden;rotatable=0;points=[[0,0.5],[1,0.5]];portConstraint=eastwest;fontSize=12;" parent="pvwdePWFHWHqx1OLr2bi-33" vertex="1">
          <mxGeometry y="146" width="160" height="30" as="geometry" />
        </mxCell>
        <mxCell id="pvwdePWFHWHqx1OLr2bi-40" value="Bằng cấp" style="text;strokeColor=none;fillColor=none;spacingLeft=4;spacingRight=4;overflow=hidden;rotatable=0;points=[[0,0.5],[1,0.5]];portConstraint=eastwest;fontSize=12;" parent="pvwdePWFHWHqx1OLr2bi-33" vertex="1">
          <mxGeometry y="176" width="160" height="30" as="geometry" />
        </mxCell>
        <mxCell id="pvwdePWFHWHqx1OLr2bi-41" value="Trình độ" style="text;strokeColor=none;fillColor=none;spacingLeft=4;spacingRight=4;overflow=hidden;rotatable=0;points=[[0,0.5],[1,0.5]];portConstraint=eastwest;fontSize=12;" parent="pvwdePWFHWHqx1OLr2bi-33" vertex="1">
          <mxGeometry y="206" width="160" height="30" as="geometry" />
        </mxCell>
        <mxCell id="pvwdePWFHWHqx1OLr2bi-42" value="Trường tốt nghiệp" style="text;strokeColor=none;fillColor=none;spacingLeft=4;spacingRight=4;overflow=hidden;rotatable=0;points=[[0,0.5],[1,0.5]];portConstraint=eastwest;fontSize=12;" parent="pvwdePWFHWHqx1OLr2bi-33" vertex="1">
          <mxGeometry y="236" width="160" height="30" as="geometry" />
        </mxCell>
        <mxCell id="pvwdePWFHWHqx1OLr2bi-49" value="LỚP HỌC" style="swimlane;fontStyle=0;childLayout=stackLayout;horizontal=1;startSize=26;horizontalStack=0;resizeParent=1;resizeParentMax=0;resizeLast=0;collapsible=1;marginBottom=0;align=center;fontSize=14;" parent="1" vertex="1">
          <mxGeometry x="494" y="379" width="160" height="116" as="geometry" />
        </mxCell>
        <mxCell id="pvwdePWFHWHqx1OLr2bi-50" value="Mã lớp học" style="text;strokeColor=none;fillColor=none;spacingLeft=4;spacingRight=4;overflow=hidden;rotatable=0;points=[[0,0.5],[1,0.5]];portConstraint=eastwest;fontSize=12;fontStyle=0" parent="pvwdePWFHWHqx1OLr2bi-49" vertex="1">
          <mxGeometry y="26" width="160" height="30" as="geometry" />
        </mxCell>
        <mxCell id="rdRmKtgfBki6RpdaBE43-10" value="Tên lớp học" style="text;strokeColor=none;fillColor=none;spacingLeft=4;spacingRight=4;overflow=hidden;rotatable=0;points=[[0,0.5],[1,0.5]];portConstraint=eastwest;fontSize=12;" parent="pvwdePWFHWHqx1OLr2bi-49" vertex="1">
          <mxGeometry y="56" width="160" height="30" as="geometry" />
        </mxCell>
        <mxCell id="rdRmKtgfBki6RpdaBE43-12" value="Giáo viên chủ nhiệm&#xa;" style="text;strokeColor=none;fillColor=none;spacingLeft=4;spacingRight=4;overflow=hidden;rotatable=0;points=[[0,0.5],[1,0.5]];portConstraint=eastwest;fontSize=12;" parent="pvwdePWFHWHqx1OLr2bi-49" vertex="1">
          <mxGeometry y="86" width="160" height="30" as="geometry" />
        </mxCell>
        <mxCell id="pvwdePWFHWHqx1OLr2bi-52" value="Môn học" style="swimlane;fontStyle=0;childLayout=stackLayout;horizontal=1;startSize=26;horizontalStack=0;resizeParent=1;resizeParentMax=0;resizeLast=0;collapsible=1;marginBottom=0;align=center;fontSize=14;" parent="1" vertex="1">
          <mxGeometry x="500" y="1086" width="160" height="86" as="geometry" />
        </mxCell>
        <mxCell id="pvwdePWFHWHqx1OLr2bi-53" value="Mã môn học" style="text;strokeColor=none;fillColor=none;spacingLeft=4;spacingRight=4;overflow=hidden;rotatable=0;points=[[0,0.5],[1,0.5]];portConstraint=eastwest;fontSize=12;fontStyle=0" parent="pvwdePWFHWHqx1OLr2bi-52" vertex="1">
          <mxGeometry y="26" width="160" height="30" as="geometry" />
        </mxCell>
        <mxCell id="pvwdePWFHWHqx1OLr2bi-54" value="Tên môn học" style="text;strokeColor=none;fillColor=none;spacingLeft=4;spacingRight=4;overflow=hidden;rotatable=0;points=[[0,0.5],[1,0.5]];portConstraint=eastwest;fontSize=12;" parent="pvwdePWFHWHqx1OLr2bi-52" vertex="1">
          <mxGeometry y="56" width="160" height="30" as="geometry" />
        </mxCell>
        <mxCell id="pvwdePWFHWHqx1OLr2bi-64" value=" ĐIỂM" style="swimlane;fontStyle=0;childLayout=stackLayout;horizontal=1;startSize=26;horizontalStack=0;resizeParent=1;resizeParentMax=0;resizeLast=0;collapsible=1;marginBottom=0;align=center;fontSize=14;" parent="1" vertex="1">
          <mxGeometry x="134" y="846" width="160" height="266" as="geometry" />
        </mxCell>
        <mxCell id="ugmIcIHYuJo1cdFX7WU3-1" value="Mã phiếu điểm" style="text;strokeColor=none;fillColor=none;spacingLeft=4;spacingRight=4;overflow=hidden;rotatable=0;points=[[0,0.5],[1,0.5]];portConstraint=eastwest;fontSize=12;" parent="pvwdePWFHWHqx1OLr2bi-64" vertex="1">
          <mxGeometry y="26" width="160" height="30" as="geometry" />
        </mxCell>
        <mxCell id="pvwdePWFHWHqx1OLr2bi-68" value="Môn học" style="text;strokeColor=none;fillColor=none;spacingLeft=4;spacingRight=4;overflow=hidden;rotatable=0;points=[[0,0.5],[1,0.5]];portConstraint=eastwest;fontSize=12;" parent="pvwdePWFHWHqx1OLr2bi-64" vertex="1">
          <mxGeometry y="56" width="160" height="30" as="geometry" />
        </mxCell>
        <mxCell id="pvwdePWFHWHqx1OLr2bi-65" value="Tên học sinh" style="text;strokeColor=none;fillColor=none;spacingLeft=4;spacingRight=4;overflow=hidden;rotatable=0;points=[[0,0.5],[1,0.5]];portConstraint=eastwest;fontSize=12;" parent="pvwdePWFHWHqx1OLr2bi-64" vertex="1">
          <mxGeometry y="86" width="160" height="30" as="geometry" />
        </mxCell>
        <mxCell id="pvwdePWFHWHqx1OLr2bi-69" value="Điểm" style="text;strokeColor=none;fillColor=none;spacingLeft=4;spacingRight=4;overflow=hidden;rotatable=0;points=[[0,0.5],[1,0.5]];portConstraint=eastwest;fontSize=12;" parent="pvwdePWFHWHqx1OLr2bi-64" vertex="1">
          <mxGeometry y="116" width="160" height="30" as="geometry" />
        </mxCell>
        <mxCell id="pvwdePWFHWHqx1OLr2bi-70" value="Số lần thi" style="text;strokeColor=none;fillColor=none;spacingLeft=4;spacingRight=4;overflow=hidden;rotatable=0;points=[[0,0.5],[1,0.5]];portConstraint=eastwest;fontSize=12;" parent="pvwdePWFHWHqx1OLr2bi-64" vertex="1">
          <mxGeometry y="146" width="160" height="30" as="geometry" />
        </mxCell>
        <mxCell id="pvwdePWFHWHqx1OLr2bi-67" value="Học kì" style="text;strokeColor=none;fillColor=none;spacingLeft=4;spacingRight=4;overflow=hidden;rotatable=0;points=[[0,0.5],[1,0.5]];portConstraint=eastwest;fontSize=12;" parent="pvwdePWFHWHqx1OLr2bi-64" vertex="1">
          <mxGeometry y="176" width="160" height="30" as="geometry" />
        </mxCell>
        <mxCell id="pvwdePWFHWHqx1OLr2bi-66" value="Năm học" style="text;strokeColor=none;fillColor=none;spacingLeft=4;spacingRight=4;overflow=hidden;rotatable=0;points=[[0,0.5],[1,0.5]];portConstraint=eastwest;fontSize=12;" parent="pvwdePWFHWHqx1OLr2bi-64" vertex="1">
          <mxGeometry y="206" width="160" height="30" as="geometry" />
        </mxCell>
        <mxCell id="ctQopqDnY2UfsGgvYHG6-9" value="Giáo viên chấm" style="text;strokeColor=none;fillColor=none;spacingLeft=4;spacingRight=4;overflow=hidden;rotatable=0;points=[[0,0.5],[1,0.5]];portConstraint=eastwest;fontSize=12;" parent="pvwdePWFHWHqx1OLr2bi-64" vertex="1">
          <mxGeometry y="236" width="160" height="30" as="geometry" />
        </mxCell>
        <mxCell id="pvwdePWFHWHqx1OLr2bi-97" value="Có" style="shape=rhombus;perimeter=rhombusPerimeter;whiteSpace=wrap;html=1;align=center;" parent="1" vertex="1">
          <mxGeometry x="151" y="213" width="120" height="60" as="geometry" />
        </mxCell>
        <mxCell id="pvwdePWFHWHqx1OLr2bi-99" value="" style="fontSize=12;html=1;endArrow=ERoneToMany;entryX=0;entryY=0.5;entryDx=0;entryDy=0;exitX=1;exitY=0.5;exitDx=0;exitDy=0;" parent="1" source="pvwdePWFHWHqx1OLr2bi-97" edge="1">
          <mxGeometry width="100" height="100" relative="1" as="geometry">
            <mxPoint x="181" y="373" as="sourcePoint" />
            <mxPoint x="447" y="243" as="targetPoint" />
          </mxGeometry>
        </mxCell>
        <mxCell id="pvwdePWFHWHqx1OLr2bi-100" value="Có" style="shape=rhombus;perimeter=rhombusPerimeter;whiteSpace=wrap;html=1;align=center;" parent="1" vertex="1">
          <mxGeometry x="154" y="721" width="120" height="60" as="geometry" />
        </mxCell>
        <mxCell id="pvwdePWFHWHqx1OLr2bi-102" value="" style="fontSize=12;html=1;endArrow=ERoneToMany;entryX=0.5;entryY=0;entryDx=0;entryDy=0;exitX=0.5;exitY=1;exitDx=0;exitDy=0;" parent="1" source="pvwdePWFHWHqx1OLr2bi-100" target="pvwdePWFHWHqx1OLr2bi-64" edge="1">
          <mxGeometry width="100" height="100" relative="1" as="geometry">
            <mxPoint x="469" y="564" as="sourcePoint" />
            <mxPoint x="518" y="564" as="targetPoint" />
          </mxGeometry>
        </mxCell>
        <mxCell id="pvwdePWFHWHqx1OLr2bi-104" value="Chủ nhiệm" style="shape=rhombus;perimeter=rhombusPerimeter;whiteSpace=wrap;html=1;align=center;" parent="1" vertex="1">
          <mxGeometry x="682" y="422" width="120" height="60" as="geometry" />
        </mxCell>
        <mxCell id="pvwdePWFHWHqx1OLr2bi-105" value="THuộc" style="shape=rhombus;perimeter=rhombusPerimeter;whiteSpace=wrap;html=1;align=center;" parent="1" vertex="1">
          <mxGeometry x="342" y="419" width="120" height="60" as="geometry" />
        </mxCell>
        <mxCell id="pvwdePWFHWHqx1OLr2bi-106" value="" style="fontSize=12;html=1;endArrow=ERmandOne;exitX=1;exitY=0.5;exitDx=0;exitDy=0;rounded=0;entryX=0;entryY=0.233;entryDx=0;entryDy=0;entryPerimeter=0;" parent="1" source="pvwdePWFHWHqx1OLr2bi-104" target="pvwdePWFHWHqx1OLr2bi-36" edge="1">
          <mxGeometry width="100" height="100" relative="1" as="geometry">
            <mxPoint x="349" y="564" as="sourcePoint" />
            <mxPoint x="847.7600000000002" y="723.47" as="targetPoint" />
          </mxGeometry>
        </mxCell>
        <mxCell id="pvwdePWFHWHqx1OLr2bi-107" value="" style="fontSize=12;html=1;endArrow=ERmandOne;entryX=1;entryY=0.5;entryDx=0;entryDy=0;exitX=0;exitY=0.5;exitDx=0;exitDy=0;rounded=0;" parent="1" source="pvwdePWFHWHqx1OLr2bi-104" edge="1">
          <mxGeometry width="100" height="100" relative="1" as="geometry">
            <mxPoint x="359" y="574" as="sourcePoint" />
            <mxPoint x="654" y="450" as="targetPoint" />
          </mxGeometry>
        </mxCell>
        <mxCell id="pvwdePWFHWHqx1OLr2bi-108" value="" style="fontSize=12;html=1;endArrow=ERmandOne;entryX=0;entryY=0.5;entryDx=0;entryDy=0;exitX=1;exitY=0.5;exitDx=0;exitDy=0;rounded=0;" parent="1" source="pvwdePWFHWHqx1OLr2bi-105" edge="1">
          <mxGeometry width="100" height="100" relative="1" as="geometry">
            <mxPoint x="349" y="564" as="sourcePoint" />
            <mxPoint x="494" y="450" as="targetPoint" />
            <Array as="points" />
          </mxGeometry>
        </mxCell>
        <mxCell id="pvwdePWFHWHqx1OLr2bi-109" value="" style="fontSize=12;html=1;endArrow=ERoneToMany;entryX=1.013;entryY=-0.067;entryDx=0;entryDy=0;exitX=0;exitY=0.5;exitDx=0;exitDy=0;rounded=0;entryPerimeter=0;" parent="1" source="pvwdePWFHWHqx1OLr2bi-105" target="pvwdePWFHWHqx1OLr2bi-24" edge="1">
          <mxGeometry width="100" height="100" relative="1" as="geometry">
            <mxPoint x="224" y="790.9999999999998" as="sourcePoint" />
            <mxPoint x="224" y="855.9999999999998" as="targetPoint" />
            <Array as="points" />
          </mxGeometry>
        </mxCell>
        <mxCell id="pvwdePWFHWHqx1OLr2bi-110" value="Của" style="shape=rhombus;perimeter=rhombusPerimeter;whiteSpace=wrap;html=1;align=center;" parent="1" vertex="1">
          <mxGeometry x="317" y="1094" width="120" height="60" as="geometry" />
        </mxCell>
        <mxCell id="pvwdePWFHWHqx1OLr2bi-111" value="" style="fontSize=12;html=1;endArrow=ERoneToMany;entryX=1;entryY=0.5;entryDx=0;entryDy=0;exitX=0.5;exitY=0;exitDx=0;exitDy=0;" parent="1" source="pvwdePWFHWHqx1OLr2bi-110" target="pvwdePWFHWHqx1OLr2bi-70" edge="1">
          <mxGeometry width="100" height="100" relative="1" as="geometry">
            <mxPoint x="224" y="790.9999999999998" as="sourcePoint" />
            <mxPoint x="224" y="855.9999999999998" as="targetPoint" />
            <Array as="points">
              <mxPoint x="377" y="1007" />
            </Array>
          </mxGeometry>
        </mxCell>
        <mxCell id="pvwdePWFHWHqx1OLr2bi-112" value="" style="fontSize=12;html=1;endArrow=ERmandOne;entryX=0;entryY=0.5;entryDx=0;entryDy=0;exitX=1;exitY=0.5;exitDx=0;exitDy=0;rounded=0;" parent="1" source="pvwdePWFHWHqx1OLr2bi-110" target="pvwdePWFHWHqx1OLr2bi-53" edge="1">
          <mxGeometry width="100" height="100" relative="1" as="geometry">
            <mxPoint x="224" y="730.9999999999998" as="sourcePoint" />
            <mxPoint x="223.72000000000003" y="668.7600000000002" as="targetPoint" />
          </mxGeometry>
        </mxCell>
        <mxCell id="rdRmKtgfBki6RpdaBE43-1" value="LỊCH THI" style="swimlane;fontStyle=0;childLayout=stackLayout;horizontal=1;startSize=26;horizontalStack=0;resizeParent=1;resizeParentMax=0;resizeLast=0;collapsible=1;marginBottom=0;align=center;fontSize=14;" parent="1" vertex="1">
          <mxGeometry x="502" y="601" width="160" height="236" as="geometry" />
        </mxCell>
        <mxCell id="ugmIcIHYuJo1cdFX7WU3-2" value="Mã lịch thi" style="text;strokeColor=none;fillColor=none;spacingLeft=4;spacingRight=4;overflow=hidden;rotatable=0;points=[[0,0.5],[1,0.5]];portConstraint=eastwest;fontSize=12;" parent="rdRmKtgfBki6RpdaBE43-1" vertex="1">
          <mxGeometry y="26" width="160" height="30" as="geometry" />
        </mxCell>
        <mxCell id="rdRmKtgfBki6RpdaBE43-3" value="Môn học" style="text;strokeColor=none;fillColor=none;spacingLeft=4;spacingRight=4;overflow=hidden;rotatable=0;points=[[0,0.5],[1,0.5]];portConstraint=eastwest;fontSize=12;" parent="rdRmKtgfBki6RpdaBE43-1" vertex="1">
          <mxGeometry y="56" width="160" height="30" as="geometry" />
        </mxCell>
        <mxCell id="rdRmKtgfBki6RpdaBE43-4" value="Địa điểm thi" style="text;strokeColor=none;fillColor=none;spacingLeft=4;spacingRight=4;overflow=hidden;rotatable=0;points=[[0,0.5],[1,0.5]];portConstraint=eastwest;fontSize=12;" parent="rdRmKtgfBki6RpdaBE43-1" vertex="1">
          <mxGeometry y="86" width="160" height="30" as="geometry" />
        </mxCell>
        <mxCell id="rdRmKtgfBki6RpdaBE43-5" value="Thời gian" style="text;strokeColor=none;fillColor=none;spacingLeft=4;spacingRight=4;overflow=hidden;rotatable=0;points=[[0,0.5],[1,0.5]];portConstraint=eastwest;fontSize=12;" parent="rdRmKtgfBki6RpdaBE43-1" vertex="1">
          <mxGeometry y="116" width="160" height="30" as="geometry" />
        </mxCell>
        <mxCell id="rdRmKtgfBki6RpdaBE43-6" value="Giáo viên coi thi&#xa;" style="text;strokeColor=none;fillColor=none;spacingLeft=4;spacingRight=4;overflow=hidden;rotatable=0;points=[[0,0.5],[1,0.5]];portConstraint=eastwest;fontSize=12;" parent="rdRmKtgfBki6RpdaBE43-1" vertex="1">
          <mxGeometry y="146" width="160" height="30" as="geometry" />
        </mxCell>
        <mxCell id="rdRmKtgfBki6RpdaBE43-19" value="Tên học viên" style="text;strokeColor=none;fillColor=none;spacingLeft=4;spacingRight=4;overflow=hidden;rotatable=0;points=[[0,0.5],[1,0.5]];portConstraint=eastwest;fontSize=12;" parent="rdRmKtgfBki6RpdaBE43-1" vertex="1">
          <mxGeometry y="176" width="160" height="30" as="geometry" />
        </mxCell>
        <mxCell id="FUonQlKfhRQpPkePMPSt-1" value="Ghi chú" style="text;strokeColor=none;fillColor=none;spacingLeft=4;spacingRight=4;overflow=hidden;rotatable=0;points=[[0,0.5],[1,0.5]];portConstraint=eastwest;fontSize=12;" vertex="1" parent="rdRmKtgfBki6RpdaBE43-1">
          <mxGeometry y="206" width="160" height="30" as="geometry" />
        </mxCell>
        <mxCell id="rdRmKtgfBki6RpdaBE43-14" value="Coi thi" style="shape=rhombus;perimeter=rhombusPerimeter;whiteSpace=wrap;html=1;align=center;" parent="1" vertex="1">
          <mxGeometry x="806" y="692" width="120" height="60" as="geometry" />
        </mxCell>
        <mxCell id="rdRmKtgfBki6RpdaBE43-15" value="" style="fontSize=12;html=1;endArrow=ERoneToMany;rounded=0;exitX=0;exitY=0.5;exitDx=0;exitDy=0;entryX=1;entryY=0.133;entryDx=0;entryDy=0;entryPerimeter=0;" parent="1" source="rdRmKtgfBki6RpdaBE43-14" target="rdRmKtgfBki6RpdaBE43-5" edge="1">
          <mxGeometry width="100" height="100" relative="1" as="geometry">
            <mxPoint x="1019" y="789" as="sourcePoint" />
            <mxPoint x="931" y="946" as="targetPoint" />
            <Array as="points" />
          </mxGeometry>
        </mxCell>
        <mxCell id="rdRmKtgfBki6RpdaBE43-16" value="Có" style="shape=rhombus;perimeter=rhombusPerimeter;whiteSpace=wrap;html=1;align=center;" parent="1" vertex="1">
          <mxGeometry x="322" y="687" width="120" height="60" as="geometry" />
        </mxCell>
        <mxCell id="rdRmKtgfBki6RpdaBE43-17" value="" style="fontSize=12;html=1;endArrow=ERoneToMany;exitX=0.5;exitY=0;exitDx=0;exitDy=0;rounded=0;" parent="1" source="rdRmKtgfBki6RpdaBE43-16" target="pvwdePWFHWHqx1OLr2bi-29" edge="1">
          <mxGeometry width="100" height="100" relative="1" as="geometry">
            <mxPoint x="389" y="686" as="sourcePoint" />
            <mxPoint x="301" y="624" as="targetPoint" />
            <Array as="points">
              <mxPoint x="377" y="617" />
            </Array>
          </mxGeometry>
        </mxCell>
        <mxCell id="rdRmKtgfBki6RpdaBE43-18" value="" style="fontSize=12;html=1;endArrow=ERoneToMany;entryX=0.019;entryY=-0.033;entryDx=0;entryDy=0;exitX=1;exitY=0.5;exitDx=0;exitDy=0;rounded=0;entryPerimeter=0;" parent="1" source="rdRmKtgfBki6RpdaBE43-16" target="rdRmKtgfBki6RpdaBE43-5" edge="1">
          <mxGeometry width="100" height="100" relative="1" as="geometry">
            <mxPoint x="389" y="686" as="sourcePoint" />
            <mxPoint x="301" y="624" as="targetPoint" />
            <Array as="points" />
          </mxGeometry>
        </mxCell>
        <mxCell id="rdRmKtgfBki6RpdaBE43-21" value="" style="fontSize=12;html=1;endArrow=ERoneToMany;entryX=0.5;entryY=1;entryDx=0;entryDy=0;rounded=0;" parent="1" source="pvwdePWFHWHqx1OLr2bi-100" target="pvwdePWFHWHqx1OLr2bi-17" edge="1">
          <mxGeometry width="100" height="100" relative="1" as="geometry">
            <mxPoint x="387" y="734" as="sourcePoint" />
            <mxPoint x="303.0799999999999" y="630.99" as="targetPoint" />
            <Array as="points" />
          </mxGeometry>
        </mxCell>
        <mxCell id="rdRmKtgfBki6RpdaBE43-22" value="" style="fontSize=12;html=1;endArrow=ERoneToMany;entryX=0.5;entryY=0;entryDx=0;entryDy=0;rounded=0;exitX=0.5;exitY=1;exitDx=0;exitDy=0;" parent="1" source="pvwdePWFHWHqx1OLr2bi-97" target="pvwdePWFHWHqx1OLr2bi-17" edge="1">
          <mxGeometry width="100" height="100" relative="1" as="geometry">
            <mxPoint x="223.03743315508018" y="731.4812834224599" as="sourcePoint" />
            <mxPoint x="221" y="669" as="targetPoint" />
            <Array as="points" />
          </mxGeometry>
        </mxCell>
        <mxCell id="rdRmKtgfBki6RpdaBE43-23" value="Của" style="shape=rhombus;perimeter=rhombusPerimeter;whiteSpace=wrap;html=1;align=center;" parent="1" vertex="1">
          <mxGeometry x="517" y="921" width="120" height="60" as="geometry" />
        </mxCell>
        <mxCell id="rdRmKtgfBki6RpdaBE43-24" value="" style="fontSize=12;html=1;endArrow=ERoneToMany;entryX=0.456;entryY=1;entryDx=0;entryDy=0;exitX=0.5;exitY=0;exitDx=0;exitDy=0;entryPerimeter=0;" parent="1" source="rdRmKtgfBki6RpdaBE43-23" target="FUonQlKfhRQpPkePMPSt-1" edge="1">
          <mxGeometry width="100" height="100" relative="1" as="geometry">
            <mxPoint x="215" y="1106" as="sourcePoint" />
            <mxPoint x="215.03999999999996" y="1062" as="targetPoint" />
          </mxGeometry>
        </mxCell>
        <mxCell id="rdRmKtgfBki6RpdaBE43-25" value="" style="fontSize=12;html=1;endArrow=ERmandOne;entryX=0.5;entryY=0;entryDx=0;entryDy=0;exitX=0.5;exitY=1;exitDx=0;exitDy=0;rounded=0;" parent="1" source="rdRmKtgfBki6RpdaBE43-23" target="pvwdePWFHWHqx1OLr2bi-52" edge="1">
          <mxGeometry width="100" height="100" relative="1" as="geometry">
            <mxPoint x="275" y="1136" as="sourcePoint" />
            <mxPoint x="492" y="1137" as="targetPoint" />
          </mxGeometry>
        </mxCell>
        <mxCell id="ctQopqDnY2UfsGgvYHG6-1" value="KẾT QUẢ ĐÁNH GIÁ" style="swimlane;fontStyle=0;childLayout=stackLayout;horizontal=1;startSize=26;horizontalStack=0;resizeParent=1;resizeParentMax=0;resizeLast=0;collapsible=1;marginBottom=0;align=center;fontSize=14;" parent="1" vertex="1">
          <mxGeometry x="448" y="87" width="160" height="236" as="geometry" />
        </mxCell>
        <mxCell id="ctQopqDnY2UfsGgvYHG6-2" value="Mã phiếu đánh giá" style="text;strokeColor=none;fillColor=none;spacingLeft=4;spacingRight=4;overflow=hidden;rotatable=0;points=[[0,0.5],[1,0.5]];portConstraint=eastwest;fontSize=12;" parent="ctQopqDnY2UfsGgvYHG6-1" vertex="1">
          <mxGeometry y="26" width="160" height="30" as="geometry" />
        </mxCell>
        <mxCell id="ctQopqDnY2UfsGgvYHG6-3" value="Tên học sinh" style="text;strokeColor=none;fillColor=none;spacingLeft=4;spacingRight=4;overflow=hidden;rotatable=0;points=[[0,0.5],[1,0.5]];portConstraint=eastwest;fontSize=12;" parent="ctQopqDnY2UfsGgvYHG6-1" vertex="1">
          <mxGeometry y="56" width="160" height="30" as="geometry" />
        </mxCell>
        <mxCell id="ctQopqDnY2UfsGgvYHG6-4" value="Năng lực" style="text;strokeColor=none;fillColor=none;spacingLeft=4;spacingRight=4;overflow=hidden;rotatable=0;points=[[0,0.5],[1,0.5]];portConstraint=eastwest;fontSize=12;" parent="ctQopqDnY2UfsGgvYHG6-1" vertex="1">
          <mxGeometry y="86" width="160" height="30" as="geometry" />
        </mxCell>
        <mxCell id="ctQopqDnY2UfsGgvYHG6-5" value="Phẩm chất" style="text;strokeColor=none;fillColor=none;spacingLeft=4;spacingRight=4;overflow=hidden;rotatable=0;points=[[0,0.5],[1,0.5]];portConstraint=eastwest;fontSize=12;" parent="ctQopqDnY2UfsGgvYHG6-1" vertex="1">
          <mxGeometry y="116" width="160" height="30" as="geometry" />
        </mxCell>
        <mxCell id="ctQopqDnY2UfsGgvYHG6-6" value="Năm học" style="text;strokeColor=none;fillColor=none;spacingLeft=4;spacingRight=4;overflow=hidden;rotatable=0;points=[[0,0.5],[1,0.5]];portConstraint=eastwest;fontSize=12;" parent="ctQopqDnY2UfsGgvYHG6-1" vertex="1">
          <mxGeometry y="146" width="160" height="30" as="geometry" />
        </mxCell>
        <mxCell id="ctQopqDnY2UfsGgvYHG6-7" value="Học kì" style="text;strokeColor=none;fillColor=none;spacingLeft=4;spacingRight=4;overflow=hidden;rotatable=0;points=[[0,0.5],[1,0.5]];portConstraint=eastwest;fontSize=12;" parent="ctQopqDnY2UfsGgvYHG6-1" vertex="1">
          <mxGeometry y="176" width="160" height="30" as="geometry" />
        </mxCell>
        <mxCell id="ctQopqDnY2UfsGgvYHG6-8" value="Người đánh giá" style="text;strokeColor=none;fillColor=none;spacingLeft=4;spacingRight=4;overflow=hidden;rotatable=0;points=[[0,0.5],[1,0.5]];portConstraint=eastwest;fontSize=12;" parent="ctQopqDnY2UfsGgvYHG6-1" vertex="1">
          <mxGeometry y="206" width="160" height="30" as="geometry" />
        </mxCell>
        <mxCell id="ctQopqDnY2UfsGgvYHG6-10" value="Đánh giá" style="shape=rhombus;perimeter=rhombusPerimeter;whiteSpace=wrap;html=1;align=center;" parent="1" vertex="1">
          <mxGeometry x="830" y="216" width="120" height="60" as="geometry" />
        </mxCell>
        <mxCell id="ctQopqDnY2UfsGgvYHG6-11" value="" style="fontSize=12;html=1;endArrow=ERmandOne;exitX=0.5;exitY=1;exitDx=0;exitDy=0;rounded=0;entryX=0.363;entryY=-0.003;entryDx=0;entryDy=0;entryPerimeter=0;" parent="1" source="ctQopqDnY2UfsGgvYHG6-10" target="pvwdePWFHWHqx1OLr2bi-33" edge="1">
          <mxGeometry width="100" height="100" relative="1" as="geometry">
            <mxPoint x="812" y="462" as="sourcePoint" />
            <mxPoint x="844.96" y="462.99" as="targetPoint" />
          </mxGeometry>
        </mxCell>
        <mxCell id="ctQopqDnY2UfsGgvYHG6-12" value="" style="fontSize=12;html=1;endArrow=ERoneToMany;entryX=1.006;entryY=0.233;entryDx=0;entryDy=0;exitX=0;exitY=0.5;exitDx=0;exitDy=0;entryPerimeter=0;" parent="1" source="ctQopqDnY2UfsGgvYHG6-10" target="ctQopqDnY2UfsGgvYHG6-6" edge="1">
          <mxGeometry width="100" height="100" relative="1" as="geometry">
            <mxPoint x="281" y="253" as="sourcePoint" />
            <mxPoint x="457" y="253" as="targetPoint" />
          </mxGeometry>
        </mxCell>
        <mxCell id="ctQopqDnY2UfsGgvYHG6-13" value="Chấm thi" style="shape=rhombus;perimeter=rhombusPerimeter;whiteSpace=wrap;html=1;align=center;" parent="1" vertex="1">
          <mxGeometry x="886" y="1187" width="120" height="60" as="geometry" />
        </mxCell>
        <mxCell id="ctQopqDnY2UfsGgvYHG6-14" value="" style="fontSize=12;html=1;endArrow=ERmandOne;entryX=0.738;entryY=1.067;entryDx=0;entryDy=0;exitX=0.5;exitY=0;exitDx=0;exitDy=0;rounded=0;entryPerimeter=0;" parent="1" source="ctQopqDnY2UfsGgvYHG6-13" target="pvwdePWFHWHqx1OLr2bi-42" edge="1">
          <mxGeometry width="100" height="100" relative="1" as="geometry">
            <mxPoint x="587" y="991" as="sourcePoint" />
            <mxPoint x="590" y="1096" as="targetPoint" />
          </mxGeometry>
        </mxCell>
        <mxCell id="ctQopqDnY2UfsGgvYHG6-15" value="" style="fontSize=12;html=1;endArrow=ERoneToMany;entryX=0.5;entryY=1;entryDx=0;entryDy=0;exitX=0;exitY=0.5;exitDx=0;exitDy=0;" parent="1" source="ctQopqDnY2UfsGgvYHG6-13" target="pvwdePWFHWHqx1OLr2bi-64" edge="1">
          <mxGeometry width="100" height="100" relative="1" as="geometry">
            <mxPoint x="224" y="791" as="sourcePoint" />
            <mxPoint x="224" y="856" as="targetPoint" />
            <Array as="points">
              <mxPoint x="214" y="1217" />
            </Array>
          </mxGeometry>
        </mxCell>
        <mxCell id="FUonQlKfhRQpPkePMPSt-2" value="" style="fontSize=12;html=1;endArrow=ERmandOne;entryX=0.213;entryY=1.1;entryDx=0;entryDy=0;exitX=0.5;exitY=0;exitDx=0;exitDy=0;rounded=0;entryPerimeter=0;" edge="1" parent="1" source="rdRmKtgfBki6RpdaBE43-14" target="pvwdePWFHWHqx1OLr2bi-42">
          <mxGeometry width="100" height="100" relative="1" as="geometry">
            <mxPoint x="472" y="459" as="sourcePoint" />
            <mxPoint x="504" y="460" as="targetPoint" />
            <Array as="points" />
          </mxGeometry>
        </mxCell>
      </root>
    </mxGraphModel>
  </diagram>
</mxfile>
